<svg width="200" height="90" viewBox="0 0 200 90" fill="none" xmlns="http://www.w3.org/2000/svg">
<rect width="200" height="90" fill="white"/>
<path d="M175.316 44.0171H175.133C175.133 44.0171 175.194 45.6031 175.194 50.4221V59.1452H167.295V32H176.414L183.979 47.1586H184.162C184.162 47.1586 184.101 45.5726 184.101 40.7536V32H192V59.1452H182.881L175.316 44.0171Z" fill="black"/>
<path d="M146.924 44.0171H146.741C146.741 44.0171 146.802 45.6031 146.802 50.4221V59.1452H138.902V32H148.022L155.555 47.1586H155.738C155.738 47.1586 155.677 45.5726 155.677 40.7536V32H163.577V59.1452H154.457L146.924 44.0171Z" fill="black"/>
<path d="M28.6421 32.0312H19.5531L9 59.1459H18.4246L24.0061 42.9503H24.1891L29.8011 59.1459H39.2257L28.6421 32.0312Z" fill="black"/>
<path d="M127.587 32.0312H118.498L107.914 59.1459H117.339L122.951 42.9503H123.134L128.715 59.1459H138.14L127.587 32.0312Z" fill="#E42130"/>
<path d="M88.178 59.1459L83.42 42.7978H83.237C83.237 42.7978 83.298 44.1398 83.298 48.9589V59.1459H75.3984V32.0312H86.5615L91.1976 48.0439H91.3806L96.0166 32.0312H107.21V59.1459H99.3411V48.9589C99.3411 44.1398 99.4021 42.7978 99.4021 42.7978H99.2191L94.4611 59.1459H88.178Z" fill="black"/>
<path d="M52.7073 59.1459L47.9493 42.7978H47.7663C47.7663 42.7978 47.8273 44.1398 47.8273 48.9589V59.1459H39.9277V32.0312H51.0908L55.7268 48.0439H55.9099L60.5459 32.0312H71.709V59.1459H63.8094C63.8094 59.1459 63.8094 53.7779 63.8094 48.9589C63.8094 44.1398 63.8704 42.7978 63.8704 42.7978H63.6874L58.9904 59.1459H52.7073Z" fill="black"/>
</svg>
