<svg width="200" height="90" viewBox="0 0 200 90" fill="none" xmlns="http://www.w3.org/2000/svg">
<g clip-path="url(#clip0_2426_5998)">
<rect width="200" height="90" fill="white"/>
<g clip-path="url(#clip1_2426_5998)">
<path fill-rule="evenodd" clip-rule="evenodd" d="M69.3103 43.7697C77.4603 43.7697 84.0803 38.6597 84.0803 32.3497C84.0803 26.0397 77.4703 20.9297 69.3303 20.9297C61.1903 20.9297 54.5703 26.0397 54.5703 32.3497C54.5703 38.6597 61.1603 43.7697 69.3103 43.7697ZM69.3203 40.3297C66.3103 40.3297 63.8603 36.7497 63.8603 32.3497C63.8603 27.9497 66.3003 24.3697 69.3203 24.3697C72.3403 24.3697 74.7803 27.9397 74.7803 32.3497C74.7803 36.7597 72.3403 40.3297 69.3203 40.3297Z" fill="black"/>
<path fill-rule="evenodd" clip-rule="evenodd" d="M86.0703 40.0398V42.8998H115.8V33.3798H113.08C112.87 36.5398 111.08 39.7598 106.22 40.0398H100.79V24.4498H106.22V21.5898H86.0703V24.4498H91.5003V40.0398H86.0703Z" fill="black"/>
<path fill-rule="evenodd" clip-rule="evenodd" d="M15.0391 21.5898V24.4398H19.8991L29.9091 42.8898H41.4691L50.7691 24.4398H56.0591V21.5898H41.8391V24.4398H45.9791L38.6891 38.8098L30.9791 24.4398H36.6191V21.5898H15.0391Z" fill="black"/>
<path fill-rule="evenodd" clip-rule="evenodd" d="M111 21.5898V24.4398H115.86L125.87 42.8898H137.43L146.73 24.4398H152.02V21.5898H137.8V24.4398H141.94L134.65 38.8098L126.93 24.4398H132.58V21.5898H111Z" fill="black"/>
<path fill-rule="evenodd" clip-rule="evenodd" d="M27.3 61.3783H34.06C37.76 61.3783 44.1 61.1683 44.1 54.6183C44.1 48.4883 36.49 48.4883 33.85 48.4883H12.5V51.2383H18V67.0883H12.5V69.8383H32.79V67.0883H27.29V61.3783H27.3ZM27.3 51.2283H29.62C33.74 51.2283 34.69 53.2383 34.69 55.1383C34.69 57.0383 32.47 58.6283 29.62 58.6283H27.3V51.2283Z" fill="black"/>
<path fill-rule="evenodd" clip-rule="evenodd" d="M60.2707 51.2283H66.9307C69.1507 51.2283 72.5307 52.4983 72.5307 56.9383H75.9107V48.4883H45.4707V51.2383H50.9707V67.0883H45.4707V69.8383H75.9107V60.6483H72.5307C72.5307 65.8283 69.1507 67.0983 66.9307 67.0983H60.2707V59.6983H67.4607V56.9483H60.2707V51.2383V51.2283Z" fill="black"/>
<path fill-rule="evenodd" clip-rule="evenodd" d="M81.4102 48.4805V51.2305H86.1602V67.0805H81.4102V69.8305H95.5702V67.0805H90.9202V57.1505L105.5 69.8305H113.75V51.2305H118.5V48.4805H104.24V51.2305H108.99V59.4705L96.4102 48.4805H81.4102Z" fill="black"/>
<path fill-rule="evenodd" clip-rule="evenodd" d="M126.22 69.8283V67.0783H130.87V51.2283H129.07C126.85 51.2283 123.26 52.4983 123.26 56.9383H120.09V48.4883H150.95V56.9383H147.67C147.67 52.4983 144.18 51.2283 141.96 51.2283H140.16V67.0783H144.81V69.8283H126.21H126.22Z" fill="black"/>
<path fill-rule="evenodd" clip-rule="evenodd" d="M161.83 59.7905L165.63 53.1305L169.54 59.7905H161.83ZM160.25 62.5405H170.92L172.51 64.9705C173.04 66.0305 172.72 67.0805 171.45 67.0805H167.65V69.8305H188.26V67.0805H185.72C184.77 67.1905 183.29 66.4505 182.55 65.1805L172.93 48.4805H162.68L153.59 64.3305C152.74 65.6005 151.69 67.0805 149.57 67.0805H147.35V69.8305H161.83V67.0805H159.61C158.66 67.0805 158.34 66.3405 158.66 65.3905L160.25 62.5405Z" fill="black"/>
<path fill-rule="evenodd" clip-rule="evenodd" d="M165.48 43.7697C173.63 43.7697 180.25 38.6597 180.25 32.3497C180.25 26.0397 173.64 20.9297 165.5 20.9297C157.36 20.9297 150.74 26.0397 150.74 32.3497C150.74 38.6597 157.33 43.7697 165.48 43.7697ZM165.49 40.3297C162.48 40.3297 160.03 36.7497 160.03 32.3497C160.03 27.9497 162.47 24.3697 165.49 24.3697C168.51 24.3697 170.95 27.9397 170.95 32.3497C170.95 36.7597 168.51 40.3297 165.49 40.3297Z" fill="black"/>
</g>
</g>
<defs>
<clipPath id="clip0_2426_5998">
<rect width="200" height="90" fill="white"/>
</clipPath>
<clipPath id="clip1_2426_5998">
<rect width="192.76" height="192.76" fill="white" transform="translate(4 -51)"/>
</clipPath>
</defs>
</svg>
