<svg width="200" height="90" viewBox="0 0 200 90" fill="none" xmlns="http://www.w3.org/2000/svg">
<rect width="200" height="90" fill="white"/>
<path d="M190.887 41.4996C190.081 39.0219 188.466 37.1266 186.386 35.6117C183.075 33.2008 179.305 32.1503 175.258 32.0132C172.359 31.9153 169.536 32.3606 166.827 33.422C164.093 34.4926 161.709 36.0597 159.922 38.4285C158.493 40.3238 157.724 42.454 157.814 44.8412C157.903 47.2375 158.815 49.3321 160.378 51.1295C163.319 54.5086 167.176 56.1232 171.513 56.7714C172.156 56.8674 172.804 56.925 173.449 56.9991H175.73C175.845 56.9762 175.958 56.9387 176.074 56.9323C177.98 56.8244 179.838 56.466 181.638 55.837C184.667 54.7774 187.328 53.161 189.269 50.5517C191.305 47.8135 191.959 44.7918 190.888 41.4996H190.887ZM178.815 50.3167C178.413 51.049 177.885 51.689 177.241 52.2275C175.444 53.7278 173.214 53.7233 171.435 52.1973C170.041 51.0015 169.249 49.4335 168.831 47.6873C168.575 46.624 168.477 45.5232 168.392 44.9728C168.447 42.1213 168.908 39.9279 170.264 38.0144C170.669 37.4421 171.174 36.909 171.728 36.4793C173.382 35.1966 175.397 35.2295 177.05 36.5141C178.455 37.6057 179.278 39.0868 179.756 40.7581C180.699 44.0586 180.488 47.2649 178.816 50.3149L178.815 50.3167Z" fill="black"/>
<path d="M159.859 33.0947V36.3019C159.552 36.3019 159.272 36.3019 158.991 36.3019C157.614 36.3046 156.236 36.3193 154.858 36.3037C154.526 36.3001 154.357 36.4134 154.204 36.7023C150.792 43.1177 147.367 49.5258 143.957 55.9439C143.788 56.263 143.604 56.3627 143.25 56.3617C139.153 56.3489 135.058 56.3508 130.961 56.3599C130.688 56.3599 130.546 56.2804 130.416 56.0372C126.993 49.6136 123.557 43.1964 120.136 36.7709C119.966 36.4509 119.777 36.3522 119.425 36.3558C117.918 36.3769 116.41 36.3641 114.901 36.3641H114.486V33.0974H138.073C138.085 33.1751 138.11 33.2638 138.111 33.3525C138.119 34.2283 138.113 35.1051 138.132 35.981C138.137 36.2516 138.042 36.3193 137.783 36.3193C136.073 36.322 134.364 36.3403 132.655 36.3531C132.526 36.3531 132.397 36.3531 132.166 36.3531C134.91 41.1155 137.616 45.8121 140.364 50.5799C142.898 45.8075 145.401 41.0908 147.948 36.2964H143.614V33.0938H159.859V33.0947Z" fill="black"/>
<path d="M120.259 45.5843V56.3332C120.131 56.3396 120.017 56.3515 119.902 56.3515C109.178 56.346 98.4559 56.3369 87.7325 56.3415C87.3577 56.3415 87.2763 56.2299 87.2836 55.8816C87.3047 54.8531 87.2919 53.8236 87.2919 52.7374H93.0005V36.3758H87.6109V33.0689H87.9913C94.9022 33.0689 101.814 33.0707 108.725 33.0625C109.031 33.0625 109.139 33.132 109.134 33.452C109.117 34.2922 109.138 35.1333 109.141 35.9744C109.141 36.0777 109.125 36.1811 109.112 36.341H103.754V36.7799C103.754 41.9565 103.758 47.133 103.747 52.3096C103.747 52.6542 103.846 52.7457 104.185 52.7429C105.918 52.7274 107.652 52.7457 109.386 52.7365C112.37 52.721 115.148 50.9153 116.196 48.3024C116.367 47.8772 116.493 47.4283 116.589 46.9794C116.686 46.5314 116.721 46.0706 116.788 45.5833H120.258L120.259 45.5843Z" fill="black"/>
<path d="M85.6579 42.4357C85.0764 40.1245 83.7489 38.2795 81.9615 36.7517C79.0743 34.2851 75.6604 33.0307 71.9366 32.5763C68.2997 32.1329 64.7405 32.5059 61.3093 33.838C58.6186 34.883 56.268 36.4144 54.4898 38.7265C53.3095 40.2616 52.5634 41.985 52.4107 43.926C52.1895 46.7373 53.1303 49.1747 54.9752 51.2574C57.9082 54.568 61.7435 56.1286 66.0259 56.7704C66.6559 56.8655 67.2922 56.924 67.9258 56.9981H70.3486C70.4757 56.9743 70.6018 56.9387 70.7298 56.9304C72.8994 56.797 75.0031 56.3535 77.0254 55.5581C79.9218 54.419 82.437 52.7532 84.2106 50.1402C85.8042 47.7906 86.3601 45.2215 85.6588 42.4348L85.6579 42.4357ZM73.5567 50.1265C73.1252 50.9658 72.5455 51.6999 71.8123 52.3043C70.014 53.7845 67.774 53.7781 65.9949 52.2704C64.5832 51.0746 63.7869 49.4993 63.37 47.7394C63.1314 46.7337 63.0418 45.6923 62.8845 44.6674C62.9156 44.6619 62.9449 44.6565 62.976 44.6501C62.9997 42.3287 63.5099 40.1491 64.8822 38.2274C65.535 37.3131 66.3505 36.5771 67.4165 36.1767C69.0211 35.5733 70.4775 35.9198 71.7748 36.9721C73.1224 38.0646 73.9096 39.5274 74.3649 41.1658C75.2225 44.2487 75.0333 47.252 73.5549 50.1274L73.5567 50.1265Z" fill="black"/>
<path d="M54.4169 33.0908V36.3016C54.1289 36.3016 53.8474 36.3016 53.5658 36.3016C52.1761 36.3044 50.7864 36.3172 49.3976 36.3053C49.0968 36.3026 48.9396 36.3995 48.7961 36.6692C45.3657 43.1166 41.9226 49.5576 38.4923 56.0049C38.3488 56.2746 38.1924 56.3606 37.8907 56.3597C33.782 56.3496 29.6733 56.3487 25.5655 56.3597C25.2602 56.3597 25.1084 56.2646 24.9676 55.9985C21.5501 49.5841 18.1189 43.176 14.7023 36.7606C14.5414 36.458 14.3667 36.3501 14.0202 36.3547C12.4769 36.3766 10.9328 36.3638 9.38948 36.3656C9.25874 36.3656 9.12891 36.3803 9 36.3867V33.0469C9.1536 33.0542 9.30719 33.0679 9.46079 33.0679C17.0492 33.0697 24.6366 33.0697 32.2241 33.0697C32.6995 33.0697 32.7014 33.0697 32.7014 33.5506C32.7014 34.4503 32.7014 35.349 32.7014 36.3172H26.7157C29.4804 41.1162 32.1848 45.8109 34.9331 50.5806C37.4747 45.7926 39.978 41.0778 42.5105 36.309H38.1805V33.0898H54.4169V33.0908Z" fill="black"/>
</svg>
