<svg width="200" height="90" viewBox="0 0 200 90" fill="none" xmlns="http://www.w3.org/2000/svg">
<g clip-path="url(#clip0_2426_5973)">
<rect width="200" height="90" fill="white"/>
<path d="M98.3668 48.4975L58.0234 67.4986L98.3668 2.4375V48.4975Z" fill="black" stroke="black" stroke-width="0.18" stroke-linecap="square"/>
<path d="M101.252 48.4975L141.541 67.4986L101.252 2.4375V48.4975Z" fill="#FF0000" stroke="#FF0000" stroke-width="0.18" stroke-linecap="square"/>
<path d="M75.4994 82.9619V85.303C75.4994 86.2104 75.0457 86.6642 74.1383 86.6642H57.9138C57.0064 86.6642 56.5527 86.2104 56.5527 85.303V82.9619H70.1638V79.9675H57.9138C57.0064 79.9675 56.5527 79.5138 56.5527 78.6064V76.2653V73.7608V71.4197C56.5527 70.5123 57.0064 70.0586 57.9138 70.0586H74.1383C75.0457 70.0586 75.4994 70.5123 75.4994 71.4197V73.7608H61.8883V76.7553H74.1383C75.0457 76.7553 75.4994 77.209 75.4994 78.1164V80.4575V82.9619Z" fill="black" stroke="black" stroke-width="0.18" stroke-linecap="square"/>
<path d="M98.6388 76.5375V80.1853C98.6388 84.686 96.5518 86.9364 92.3777 86.9364L79.4199 86.6642V70.0586H92.3777C96.5518 70.0586 98.6388 72.2182 98.6388 76.5375ZM84.5377 82.7441H90.9621C92.5229 82.599 93.3758 81.746 93.521 80.1853V76.2653C93.3758 74.7408 92.5229 73.906 90.9621 73.7608H84.5377V82.7441Z" fill="black" stroke="black" stroke-width="0.18" stroke-linecap="square"/>
<path d="M90.9622 76.9734V79.5323C90.9622 79.9678 90.7445 80.1856 90.3089 80.1856H87.3145V76.2656H90.3089C90.7445 76.2656 90.9622 76.5016 90.9622 76.9734Z" fill="#FF0000" stroke="#FF0000" stroke-width="0.18" stroke-linecap="square"/>
<path d="M102.287 73.9786V71.4197C102.287 70.5123 102.759 70.0586 103.703 70.0586H107.623V82.7441H120.798V85.303C120.798 86.2104 120.345 86.6642 119.437 86.6642H103.703C102.759 86.6642 102.287 86.2104 102.287 85.303V82.7441V73.9786Z" fill="black" stroke="black" stroke-width="0.18" stroke-linecap="square"/>
<path d="M123.574 73.9786V82.7441V85.303C123.574 86.2104 124.028 86.6642 124.935 86.6642H141.595C142.539 86.6642 143.011 86.2104 143.011 85.303V76.5375H134.191V79.9675H137.675V82.7441H128.91V73.7608H143.011V71.4197C143.011 70.5123 142.539 70.0586 141.595 70.0586H129.128H124.935C124.028 70.0586 123.574 70.5123 123.574 71.4197V73.9786Z" fill="black" stroke="black" stroke-width="0.18" stroke-linecap="square"/>
</g>
<defs>
<clipPath id="clip0_2426_5973">
<rect width="200" height="90" fill="white"/>
</clipPath>
</defs>
</svg>
