<svg width="200" height="90" viewBox="0 0 200 90" fill="none" xmlns="http://www.w3.org/2000/svg">
<rect width="200" height="90" fill="#A00020"/>
<g clip-path="url(#clip0_2426_6013)">
<path d="M183 0H34V89.9995H183V0Z" fill="#A00020"/>
<path d="M165.037 74.159C165.672 72.3335 167.667 68.424 170.088 68.424C170.538 68.424 170.834 68.6415 170.979 68.958C171.135 69.2955 171.109 69.7625 170.943 70.163C170.098 72.2025 167.679 73.7165 165.037 74.159ZM150.088 70.7635C150.001 72.4915 147.58 77.912 144.547 77.912C143.221 77.912 143.159 76.584 143.426 75.414C143.852 73.5415 146.426 68.9775 148.795 68.9775C149.768 68.9775 150.134 69.8705 150.088 70.7635ZM78.615 76.7695C76.3591 78.224 74.0899 79.1075 71.7948 79.1075C68.3365 79.1075 66.3935 77.7675 66.3935 76.068C66.3935 74.8645 67.5249 73.7785 69.5439 73.7785C72.2438 73.779 75.3166 75.192 78.615 76.7695ZM164.775 75.39C166.747 75.072 173.004 74.0695 173.884 70.919C174.609 68.327 172.188 67.0595 169.716 67.0595C164.79 67.0595 159.807 70.131 158.541 75.1815C158.473 75.443 158.428 75.714 158.404 75.988C156.874 77.3085 155.383 78.0235 154.552 78.0235C153.641 78.0235 153.525 77.389 153.945 76.569L161.788 61.2681H155.403L151.215 69.434C150.905 68.293 149.621 66.962 146.8 66.962C141.435 66.962 138.301 71.4435 137.197 74.489C137.005 75.02 136.882 75.5355 136.824 76.03C135.314 77.323 133.846 78.023 133.024 78.023C132.114 78.023 131.996 77.3885 132.416 76.5685L134.69 72.1355C135.863 69.849 134.817 67.336 131.674 67.336C128.946 67.336 126.445 68.8175 123.387 71.066L125.101 67.724H118.509L116.567 71.5135C114.456 75.63 110.719 78.023 109.199 78.023C108.289 78.023 108.156 77.378 108.593 76.5685L113.358 67.724H106.771L104.118 72.6455C103.128 74.4815 100.677 77.2015 96.6738 77.2015C93.968 77.2015 91.1861 76.5 88.3094 75.607C92.8798 72.8155 97.5003 68.944 101.758 63.9905C110.214 54.1511 115.812 50.4181 125.078 50.4181C137.043 50.4181 141.512 54.9726 141.512 58.7316C141.512 61.6221 140.149 62.5455 139.027 63.0625L139.193 64.039C144.499 63.838 147.472 61.2081 147.472 58.1656C147.472 52.8686 138.432 48.8281 124.169 48.8281C111.892 48.8281 101.243 53.9351 94.0663 61.5976C90.17 65.7535 86.3397 70.3235 82.5019 73.7495C79.2597 72.762 75.8918 71.9485 72.3744 71.9485C65.5393 71.9485 61.1895 73.6845 61.1895 76.6855C61.1895 79.351 66.0364 81.0029 71.764 81.0029C75.0062 81.0029 78.6776 80.1984 82.5153 78.5905C85.5385 79.9184 88.6919 81.0029 91.8735 81.0029C96.054 81.0029 99.5579 78.8535 101.852 76.862C100.753 79.135 102.154 81.0029 104.679 81.0029C107.06 81.0029 110.77 79.599 113.931 76.6565L111.902 80.6119H118.495L119.078 79.471C120.44 76.8025 123.836 70.707 127.172 70.707C128.148 70.707 128.366 71.6135 127.89 72.543L125.77 76.675C124.548 79.0575 125.909 81.0029 128.503 81.0029C130.673 81.0029 133.897 79.836 136.825 77.402C137.103 79.532 138.7 81.0029 140.945 81.0029C143.548 81.0029 146.65 78.843 147.72 77.8265C147.55 79.3585 148.329 81.0029 150.548 81.0029C152.36 81.0029 155.531 79.809 158.461 77.32C158.831 79.3705 160.558 81.2524 164.372 81.2524C167.512 81.2524 171.492 79.8865 174.068 78.213L174.045 77.0235C171.916 78.0535 169.985 78.8765 167.803 78.8765C165.616 78.8765 164.362 77.3265 164.775 75.39ZM116.139 62.6475C116.394 60.9711 115.113 59.6141 113.272 59.6141C111.432 59.6141 109.736 60.9711 109.478 62.6475C109.222 64.3255 110.502 65.6825 112.343 65.6825C114.182 65.6825 115.88 64.3255 116.139 62.6475Z" fill="white"/>
<path d="M43.3125 16.7041V9.36719H44.287V16.0427H46.5691V16.7036L43.3125 16.7041Z" fill="white"/>
<path d="M48.336 9.84699C48.0285 9.84699 47.7852 9.6125 47.7852 9.335C47.7852 9.047 48.029 8.8125 48.336 8.8125C48.6325 8.8125 48.8763 9.047 48.8763 9.335C48.8758 9.6125 48.6325 9.84699 48.336 9.84699ZM47.8696 16.704V10.956H48.8018V16.704H47.8696Z" fill="white"/>
<path d="M53.5845 16.7021V12.5751C53.5845 12.0421 53.362 11.4557 52.3875 11.4557C51.858 11.4557 51.6038 11.5302 51.3072 11.6582V16.7021H50.375V11.2527C50.8836 11.0072 51.5506 10.8477 52.462 10.8477C54.0508 10.8477 54.5172 11.7327 54.5172 12.5536V16.7021H53.5845Z" fill="white"/>
<path d="M58.161 16.81C56.5295 16.81 55.6504 15.6585 55.6504 13.92C55.6504 12.011 56.6566 10.902 58.1293 10.902C58.4471 10.902 58.7223 10.9445 59.0297 11.03V8.33203H59.9515V16.4045C59.5701 16.6395 58.9557 16.81 58.161 16.81ZM59.0297 11.5525C58.7968 11.4885 58.5638 11.446 58.32 11.446C56.9959 11.446 56.5722 12.5975 56.5722 13.8455C56.5722 15.2 57.0381 16.1915 58.2038 16.1915C58.5852 16.1915 58.8499 16.149 59.0302 16.0315L59.0297 11.5525Z" fill="white"/>
<path d="M61.9919 14.1851C62.0977 15.4861 62.7016 16.1261 63.7292 16.1261C64.3754 16.1261 64.8413 15.9661 65.1383 15.7956L65.3821 16.4141C65.0325 16.6276 64.4285 16.8086 63.6557 16.8086C62.1622 16.8086 61.1133 15.8596 61.1133 13.8121C61.1133 11.8607 62.0669 10.8477 63.4119 10.8477C64.7782 10.8477 65.6046 11.7437 65.5833 13.6631L61.9919 14.1851ZM63.3796 11.4552C62.5531 11.4552 61.9387 12.1271 61.9601 13.6841L64.6933 13.2681C64.6928 11.9671 64.1951 11.4552 63.3796 11.4552Z" fill="white"/>
<path d="M75.2006 16.7041C75.1901 16.6081 74.6393 11.2122 74.6393 11.2122C74.5971 10.7537 74.5862 10.3487 74.5862 10.3487H74.5648C74.5648 10.3487 74.4908 10.7537 74.3637 11.2122C74.3637 11.2122 72.8598 16.5761 72.8171 16.7041H72.1709C72.1391 16.5976 70.6456 11.2017 70.6456 11.2017C70.5289 10.7647 70.4445 10.3487 70.4445 10.3487H70.4231C70.4231 10.3487 70.4127 10.7647 70.37 11.2017C70.37 11.2017 69.8087 16.5976 69.7978 16.7041H68.9609L69.8296 9.36719H70.8572L72.3189 14.6672C72.457 15.1577 72.5101 15.4987 72.5101 15.4987H72.5315C72.5315 15.4987 72.5846 15.1577 72.7222 14.6777L74.2261 9.36719H75.2537L76.1224 16.7041H75.2006Z" fill="white"/>
<path d="M79.3413 16.8086C77.8583 16.8086 77.1699 16.1581 77.1699 15.1131C77.1699 13.5881 78.5894 13.1401 80.3585 12.9591V12.6071C80.3585 11.7222 79.8291 11.4662 79.098 11.4662C78.5472 11.4662 78.0386 11.6687 77.7207 11.8287L77.4982 11.2742C77.8265 11.0927 78.4622 10.8477 79.246 10.8477C80.3054 10.8477 81.2376 11.3062 81.2376 12.7136V16.4031C80.803 16.6486 80.136 16.8086 79.3413 16.8086ZM80.3585 13.4386C78.9177 13.6201 78.0599 13.9291 78.0599 15.0916C78.0599 15.9236 78.5685 16.2646 79.4158 16.2646C79.7759 16.2646 80.1256 16.2006 80.3585 16.0726V13.4386Z" fill="white"/>
<path d="M84.4647 16.7552C83.4267 16.7552 83.0453 16.0087 83.0453 15.3047V11.5402H82.3887V10.9537H83.0453V9.63175L83.9775 9.34375V10.9542H84.9733V11.5407H83.9775V15.2837C83.9775 15.7422 84.1787 16.1157 84.6977 16.1157C84.793 16.1157 84.878 16.0942 84.9728 16.0732V16.6702C84.867 16.7022 84.6977 16.7552 84.4647 16.7552Z" fill="white"/>
<path d="M86.7419 14.1851C86.8477 15.4861 87.4516 16.1261 88.4792 16.1261C89.1254 16.1261 89.5913 15.9661 89.8883 15.7956L90.1321 16.4141C89.7825 16.6276 89.1785 16.8086 88.4057 16.8086C86.9122 16.8086 85.8633 15.8596 85.8633 13.8121C85.8633 11.8607 86.8169 10.8477 88.1619 10.8477C89.5282 10.8477 90.3546 11.7437 90.3333 13.6631L86.7419 14.1851ZM88.1296 11.4552C87.3031 11.4552 86.6887 12.1271 86.7101 13.6841L89.4433 13.2681C89.4428 11.9671 88.9451 11.4552 88.1296 11.4552Z" fill="white"/>
<path d="M93.9967 11.5742C93.5308 11.4357 93.0009 11.4782 92.694 11.6807V16.7032H91.7617V11.2647C92.3234 10.9767 92.8633 10.8277 94.2192 10.8597L93.9967 11.5742Z" fill="white"/>
<path d="M96.0098 9.84699C95.7024 9.84699 95.459 9.6125 95.459 9.335C95.459 9.047 95.7028 8.8125 96.0098 8.8125C96.3063 8.8125 96.5502 9.047 96.5502 9.335C96.5502 9.6125 96.3063 9.84699 96.0098 9.84699ZM95.5439 16.704V10.956H96.4762V16.704H95.5439Z" fill="white"/>
<path d="M100.025 16.8086C98.5419 16.8086 97.8535 16.1581 97.8535 15.1131C97.8535 13.5881 99.273 13.1401 101.042 12.9591V12.6071C101.042 11.7222 100.513 11.4662 99.7816 11.4662C99.2308 11.4662 98.7222 11.6687 98.4043 11.8287L98.1818 11.2742C98.5101 11.0927 99.1458 10.8477 99.9296 10.8477C100.989 10.8477 101.921 11.3062 101.921 12.7136V16.4031C101.487 16.6486 100.819 16.8086 100.025 16.8086ZM101.042 13.4386C99.6008 13.6201 98.743 13.9291 98.743 15.0916C98.743 15.9236 99.2516 16.2646 100.099 16.2646C100.459 16.2646 100.809 16.2006 101.042 16.0726V13.4386Z" fill="white"/>
<path d="M103.426 16.7035V8.33203H104.358V16.703L103.426 16.7035Z" fill="white"/>
<path d="M112.091 16.7041V13.2382H109.303V16.7041H108.328V9.36719H109.303V12.5877H112.091V9.36719H113.065V16.7041H112.091Z" fill="white"/>
<path d="M116.57 16.8086C115.087 16.8086 114.398 16.1581 114.398 15.1131C114.398 13.5881 115.818 13.1401 117.587 12.9591V12.6071C117.587 11.7222 117.058 11.4662 116.326 11.4662C115.776 11.4662 115.267 11.6687 114.949 11.8287L114.727 11.2742C115.055 11.0927 115.691 10.8477 116.475 10.8477C117.534 10.8477 118.466 11.3062 118.466 12.7136V16.4031C118.032 16.6486 117.364 16.8086 116.57 16.8086ZM117.587 13.4386C116.146 13.6201 115.288 13.9291 115.288 15.0916C115.288 15.9236 115.797 16.2646 116.644 16.2646C117.004 16.2646 117.354 16.2006 117.587 16.0726V13.4386Z" fill="white"/>
<path d="M123.151 16.7021V12.5751C123.151 12.0421 122.928 11.4557 121.954 11.4557C121.424 11.4557 121.17 11.5302 120.874 11.6582V16.7021H119.941V11.2527C120.45 11.0072 121.117 10.8477 122.028 10.8477C123.617 10.8477 124.084 11.7327 124.084 12.5536V16.7021H123.151Z" fill="white"/>
<path d="M127.714 16.81C126.082 16.81 125.203 15.6585 125.203 13.92C125.203 12.011 126.209 10.902 127.682 10.902C128 10.902 128.275 10.9445 128.582 11.03V8.33203H129.504V16.4045C129.122 16.6395 128.508 16.81 127.714 16.81ZM128.582 11.5525C128.35 11.4885 128.117 11.446 127.873 11.446C126.549 11.446 126.125 12.5975 126.125 13.8455C126.125 15.2 126.591 16.1915 127.756 16.1915C128.138 16.1915 128.403 16.149 128.583 16.0315V11.5525H128.582Z" fill="white"/>
<path d="M131.105 16.7035V8.33203H132.038V16.703L131.105 16.7035Z" fill="white"/>
<path d="M134.131 9.84699C133.823 9.84699 133.58 9.6125 133.58 9.335C133.58 9.047 133.824 8.8125 134.131 8.8125C134.427 8.8125 134.671 9.047 134.671 9.335C134.671 9.6125 134.427 9.84699 134.131 9.84699ZM133.665 16.704V10.956H134.597V16.704H133.665Z" fill="white"/>
<path d="M139.393 16.7021V12.5751C139.393 12.0421 139.171 11.4557 138.196 11.4557C137.667 11.4557 137.412 11.5302 137.116 11.6582V16.7021H136.184V11.2527C136.692 11.0072 137.359 10.8477 138.271 10.8477C139.859 10.8477 140.326 11.7327 140.326 12.5536V16.7021H139.393Z" fill="white"/>
<path d="M143.556 19.1121C142.804 19.1121 142.169 18.9521 141.787 18.7176L142.073 18.0886C142.391 18.2701 142.889 18.4296 143.397 18.4296C144.446 18.4296 144.849 17.7896 144.849 16.9261V16.5206C144.594 16.6701 144.203 16.7661 143.705 16.7661C142.339 16.7661 141.459 15.6786 141.459 13.9296C141.459 12.1061 142.338 10.8477 144.054 10.8477C144.848 10.8477 145.42 11.0397 145.749 11.2527V16.8191C145.749 18.2696 144.923 19.1121 143.556 19.1121ZM144.849 11.5727C144.637 11.4552 144.362 11.4127 144.033 11.4127C142.878 11.4127 142.381 12.3831 142.381 13.8971C142.381 15.3796 142.858 16.2111 143.949 16.2111C144.309 16.2111 144.627 16.1151 144.849 15.9766L144.849 11.5727Z" fill="white"/>
</g>
<defs>
<clipPath id="clip0_2426_6013">
<rect width="149" height="90" fill="white" transform="translate(34)"/>
</clipPath>
</defs>
</svg>
